<svg width="35" height="35" viewBox="0 0 35 35" fill="none" xmlns="http://www.w3.org/2000/svg">
<path d="M16.4995 4.55165C17.1735 3.86051 17.9779 3.31007 18.8662 2.93225C19.7546 2.55444 20.7091 2.35678 21.6744 2.35073C22.6397 2.34468 23.5966 2.53037 24.4896 2.89702C25.3826 3.26367 26.1939 3.80399 26.8764 4.48663C27.559 5.16927 28.0992 5.98064 28.4657 6.87369C28.8322 7.76673 29.0178 8.72366 29.0116 9.68897C29.0054 10.6543 28.8076 11.6088 28.4297 12.497C28.0517 13.3853 27.5012 14.1897 26.8099 14.8635L15.4685 26.2064C15.0635 26.6182 14.581 26.9457 14.0488 27.17C13.5166 27.3943 12.9453 27.511 12.3678 27.5135C11.7902 27.5159 11.2179 27.4039 10.6839 27.1841C10.1499 26.9642 9.66463 26.6408 9.25621 26.2325C8.84778 25.8241 8.52425 25.339 8.30426 24.805C8.08427 24.271 7.97219 23.6987 7.97447 23.1212C7.97675 22.5437 8.09336 21.9723 8.31756 21.4401C8.54176 20.9079 8.86913 20.4253 9.28077 20.0202L20.6237 8.67727L22.6858 10.7394L11.3429 22.0823C11.2036 22.2168 11.0925 22.3777 11.016 22.5556C10.9396 22.7336 10.8994 22.9249 10.8977 23.1186C10.896 23.3122 10.9329 23.5042 11.0062 23.6835C11.0796 23.8627 11.1878 24.0255 11.3248 24.1624C11.4617 24.2994 11.6245 24.4076 11.8038 24.481C11.983 24.5543 12.175 24.5912 12.3686 24.5895C12.5623 24.5878 12.7536 24.5476 12.9316 24.4712C13.1095 24.3947 13.2704 24.2836 13.4049 24.1444L24.7493 12.8014C25.1556 12.3951 25.4779 11.9128 25.6978 11.382C25.9177 10.8511 26.0308 10.2822 26.0308 9.70759C26.0308 9.133 25.9177 8.56405 25.6978 8.0332C25.4779 7.50236 25.1556 7.02002 24.7493 6.61373C24.343 6.20744 23.8607 5.88515 23.3298 5.66527C22.799 5.44539 22.23 5.33222 21.6555 5.33222C21.0809 5.33222 20.5119 5.44539 19.9811 5.66527C19.4502 5.88515 18.9679 6.20744 18.5616 6.61373L7.21868 17.9581C5.89045 19.3333 5.15549 21.1752 5.1721 23.0871C5.18872 24.9989 5.95557 26.8278 7.30751 28.1797C8.65944 29.5316 10.4883 30.2985 12.4001 30.3151C14.312 30.3317 16.1539 29.5968 17.5291 28.2685L29.9045 15.8946L31.9666 17.9581L19.5926 30.3321C17.6781 32.2466 15.0814 33.3222 12.3739 33.3222C9.66634 33.3222 7.06967 32.2466 5.15514 30.3321C3.24061 28.4175 2.16504 25.8209 2.16504 23.1133C2.16504 20.4058 3.24061 17.8091 5.15514 15.8946L16.4995 4.55165Z" fill="black"/>
</svg>
