<svg width="91" height="91" viewBox="0 0 91 91" fill="none" xmlns="http://www.w3.org/2000/svg">
<path d="M15.1668 75.8332C13.0814 75.8332 11.2968 75.0913 9.813 73.6075C8.32919 72.1237 7.58602 70.3378 7.5835 68.2498V22.7498C7.5835 20.6644 8.32666 18.8798 9.813 17.396C11.2993 15.9122 13.0839 15.169 15.1668 15.1665H75.8335C77.9189 15.1665 79.7048 15.9097 81.1911 17.396C82.6775 18.8823 83.4194 20.6669 83.4168 22.7498V68.2498C83.4168 70.3353 82.6749 72.1211 81.1911 73.6075C79.7073 75.0938 77.9214 75.8357 75.8335 75.8332H15.1668ZM45.5002 49.2915L75.8335 30.3332V22.7498L45.5002 41.7082L15.1668 22.7498V30.3332L45.5002 49.2915Z" fill="#44484B" fill-opacity="0.8"/>
</svg>
