<svg width="130" height="130" viewBox="0 0 130 130" fill="none" xmlns="http://www.w3.org/2000/svg">
<g clip-path="url(#clip0_2001_859)">
<path d="M92.6248 49.9687C93.8598 48.7174 93.8598 46.6862 92.6248 45.4187C91.3898 44.1512 89.3911 44.1674 88.1561 45.4187L56.6717 77.3499L42.0467 62.5218C41.7555 62.2245 41.4078 61.9884 41.0241 61.8272C40.6405 61.6659 40.2285 61.5829 39.8123 61.5829C39.3962 61.5829 38.9842 61.6659 38.6005 61.8272C38.2169 61.9884 37.8692 62.2245 37.578 62.5218C36.9825 63.1293 36.6489 63.9461 36.6489 64.7968C36.6489 65.6475 36.9825 66.4643 37.578 67.0718L54.4373 84.1749C54.7286 84.4722 55.0762 84.7083 55.4599 84.8696C55.8436 85.0308 56.2555 85.1138 56.6717 85.1138C57.0879 85.1138 57.4999 85.0308 57.8835 84.8696C58.2672 84.7083 58.6148 84.4722 58.9061 84.1749L92.6248 49.9687Z" fill="#67696B"/>
<path fill-rule="evenodd" clip-rule="evenodd" d="M130 65C130 100.913 100.913 130 65 130C29.0875 130 0 100.913 0 65C0 29.0875 29.0875 0 65 0C100.913 0 130 29.0875 130 65ZM125.938 65C125.938 98.6375 98.6375 125.938 65 125.938C31.3625 125.938 4.0625 98.6375 4.0625 65C4.0625 31.3625 31.3625 4.0625 65 4.0625C98.6375 4.0625 125.938 31.3625 125.938 65Z" fill="#67696B"/>
</g>
<defs>
<clipPath id="clip0_2001_859">
<rect width="130" height="130" fill="white"/>
</clipPath>
</defs>
</svg>
