<svg width="38" height="38" viewBox="0 0 38 38" fill="none" xmlns="http://www.w3.org/2000/svg">
<path d="M3.1665 30.0832C3.1665 32.7748 5.22484 34.8332 7.9165 34.8332H30.0832C32.7748 34.8332 34.8332 32.7748 34.8332 30.0832V17.4165H3.1665V30.0832ZM30.0832 6.33317H26.9165V4.74984C26.9165 3.79984 26.2832 3.1665 25.3332 3.1665C24.3832 3.1665 23.7498 3.79984 23.7498 4.74984V6.33317H14.2498V4.74984C14.2498 3.79984 13.6165 3.1665 12.6665 3.1665C11.7165 3.1665 11.0832 3.79984 11.0832 4.74984V6.33317H7.9165C5.22484 6.33317 3.1665 8.3915 3.1665 11.0832V14.2498H34.8332V11.0832C34.8332 8.3915 32.7748 6.33317 30.0832 6.33317Z" fill="black" fill-opacity="0.7"/>
</svg>
