<svg width="38" height="38" viewBox="0 0 38 38" fill="none" xmlns="http://www.w3.org/2000/svg">
<path d="M19.0002 14.25C17.7404 14.25 16.5322 14.7504 15.6414 15.6412C14.7506 16.532 14.2502 17.7402 14.2502 19C14.2502 20.2598 14.7506 21.468 15.6414 22.3588C16.5322 23.2496 17.7404 23.75 19.0002 23.75C20.2599 23.75 21.4681 23.2496 22.3589 22.3588C23.2497 21.468 23.7502 20.2598 23.7502 19C23.7502 17.7402 23.2497 16.532 22.3589 15.6412C21.4681 14.7504 20.2599 14.25 19.0002 14.25ZM19.0002 26.9167C16.9005 26.9167 14.8869 26.0826 13.4022 24.5979C11.9176 23.1133 11.0835 21.0996 11.0835 19C11.0835 16.9004 11.9176 14.8867 13.4022 13.4021C14.8869 11.9174 16.9005 11.0833 19.0002 11.0833C21.0998 11.0833 23.1134 11.9174 24.5981 13.4021C26.0828 14.8867 26.9168 16.9004 26.9168 19C26.9168 21.0996 26.0828 23.1133 24.5981 24.5979C23.1134 26.0826 21.0998 26.9167 19.0002 26.9167ZM19.0002 7.125C11.0835 7.125 4.32266 12.0492 1.5835 19C4.32266 25.9508 11.0835 30.875 19.0002 30.875C26.9168 30.875 33.6777 25.9508 36.4168 19C33.6777 12.0492 26.9168 7.125 19.0002 7.125Z" fill="black" fill-opacity="0.7"/>
</svg>
